<svg width="1440" height="1024" viewBox="0 0 1440 1024" fill="none" xmlns="http://www.w3.org/2000/svg">
<g clip-path="url(#clip0_144_28)">
<line x1="207.5" y1="145" x2="207.5" y2="485.32" stroke="#666666"/>
<line y1="-0.5" x2="250.014" y2="-0.5" transform="matrix(0.999941 -0.0108691 0.00811088 0.999967 207 488)" stroke="#666666"/>
<line y1="-0.5" x2="414.824" y2="-0.5" transform="matrix(0.594295 0.804247 -0.71056 0.703637 210.472 154.379)" stroke="#666666"/>
<path d="M1456.14 775.211C1368.89 761.661 1348.71 792.612 1349.52 809.781C1349.52 809.781 1346.78 842.127 1309.01 869.996C1271.25 897.864 1245.31 864.981 1221.47 877.606C1197.64 890.232 1183.97 919.377 1142.95 941.105C1101.93 962.832 1088.44 948.074 1052.96 966.866C1017.49 985.657 988.299 1023.02 988.299 1023.02" stroke="#666666"/>
<path d="M866.499 230.5C866.192 322.167 781.53 396.5 677 396.5C572.469 396.5 487.808 322.167 487.501 230.5L677 230.5L866.499 230.5Z" stroke="#666666"/>
<path d="M625.696 649.196C678.114 573.994 790.031 561.049 875.985 620.535C961.939 680.02 989.255 789.322 937.342 864.873L781.519 757.035L625.696 649.196Z" stroke="#666666"/>
<path d="M1107.5 198C1107.5 293.23 1023.37 370.5 919.5 370.5C815.629 370.5 731.5 293.23 731.5 198C731.5 102.77 815.629 25.5 919.5 25.5C1023.37 25.5 1107.5 102.77 1107.5 198Z" stroke="#666666"/>
<path d="M1032.5 660.5C1032.5 706.342 995.561 743.5 950 743.5C904.439 743.5 867.5 706.342 867.5 660.5C867.5 614.658 904.439 577.5 950 577.5C995.561 577.5 1032.5 614.658 1032.5 660.5Z" stroke="#666666"/>
<path d="M1126.5 556C1126.5 617.533 1071.26 667.5 1003 667.5C934.744 667.5 879.5 617.533 879.5 556C879.5 494.467 934.744 444.5 1003 444.5C1071.26 444.5 1126.5 494.467 1126.5 556Z" stroke="#666666"/>
<rect x="466.5" y="534.5" width="380" height="85" stroke="#666666"/>
</g>
<defs>
<clipPath id="clip0_144_28">
<rect width="1440" height="1024" fill="white"/>
</clipPath>
</defs>
</svg>
