<svg width="1440" height="1024" viewBox="0 0 1440 1024" fill="none" xmlns="http://www.w3.org/2000/svg">
<g clip-path="url(#clip0_142_3)">
<path d="M216 521V178L466 521H216Z" fill="#0B3815" fill-opacity="0.84"/>
<path d="M1456.14 775.211C1368.89 761.661 1348.71 792.612 1349.52 809.781C1349.52 809.781 1346.78 842.127 1309.01 869.996C1271.25 897.864 1245.31 864.981 1221.47 877.606C1197.64 890.232 1183.97 919.377 1142.95 941.105C1101.93 962.832 1088.44 948.074 1052.96 966.866C1017.49 985.657 988.299 1023.02 988.299 1023.02" stroke="#0B3BFB" stroke-width="5"/>
<path d="M867 230C867 322.232 781.934 397 677 397C572.066 397 487 322.232 487 230C677 230 572.066 230 677 230C781.934 230 677 230 867 230Z" fill="black" fill-opacity="0.79"/>
<path d="M625 649.322C677.487 573.481 789.984 560.409 876.27 620.124C962.556 679.839 989.956 789.729 937.469 865.569C781.235 757.446 867.521 817.161 781.235 757.446C694.949 697.731 781.235 757.446 625 649.322Z" fill="#990B97" fill-opacity="0.9"/>
<ellipse cx="919.5" cy="198" rx="188.5" ry="173" fill="#D11414" fill-opacity="0.8"/>
<ellipse cx="950" cy="660.5" rx="83" ry="83.5" fill="#EEFF00" fill-opacity="0.81"/>
<ellipse cx="1003" cy="556" rx="124" ry="112" fill="#E06C0D" fill-opacity="0.8"/>
<rect x="466" y="534" width="381" height="86" fill="#7BBF2D" fill-opacity="0.72"/>
</g>
<defs>
<clipPath id="clip0_142_3">
<rect width="1440" height="1024" fill="white"/>
</clipPath>
</defs>
</svg>
